<svg width="91" height="45" viewBox="0 0 91 45" fill="none" xmlns="http://www.w3.org/2000/svg">
<path d="M1.74997 39.5483H0V31.0742H1.74997V39.5483Z" fill="white"/>
<path d="M78.2031 30.9785H80.0267L79.0521 33.6429H78.2059V30.9785H78.2031Z" fill="white"/>
<path d="M15.337 35.0852C15.337 35.515 15.2572 35.9158 15.0971 36.2879C14.9372 36.66 14.7168 36.986 14.4425 37.2685C14.168 37.5511 13.8421 37.7729 13.4708 37.9376C13.096 38.0992 12.6987 38.1796 12.273 38.1796H4.54931V39.5786H2.67969V30.9704L12.2699 30.9561C12.696 30.9561 13.096 31.0368 13.4677 31.1981C13.8421 31.3597 14.1652 31.5818 14.4397 31.8643C14.7143 32.1469 14.9313 32.476 15.0943 32.8534C15.2544 33.2315 15.3345 33.6323 15.3345 34.0618V35.0855H15.3373L15.337 35.0852ZM12.2696 36.2792C12.601 36.2792 12.8843 36.1638 13.1189 35.9332C13.3533 35.7024 13.4705 35.4195 13.4705 35.0852V34.0646C13.4705 33.7302 13.353 33.4445 13.1189 33.2078C12.8843 32.9713 12.6014 32.8531 12.2696 32.8531H4.549V36.2764H12.2696V36.2792Z" fill="white"/>
<path d="M19.2158 30.9697H25.1617C25.5875 30.9697 25.9875 31.0505 26.3595 31.2118C26.7339 31.3733 27.0567 31.5957 27.3313 31.8752C27.6058 32.1578 27.8229 32.4838 27.9861 32.8584C28.146 33.2333 28.226 33.6344 28.226 34.0611V39.5748H26.3595V37.513H18.0181V39.5748H16.1484V34.0611C16.1484 33.6344 16.2285 33.2333 16.3884 32.8584C16.5485 32.4838 16.7687 32.155 17.0432 31.8752C17.3171 31.5926 17.6433 31.3733 18.015 31.2118C18.3922 31.0505 18.7898 30.9697 19.2155 30.9697H19.2158ZM18.0181 35.6241H26.3623V34.0611C26.3623 33.7264 26.2448 33.4438 26.0107 33.2102C25.7761 32.9766 25.4935 32.8584 25.1617 32.8584H19.2158C18.8844 32.8584 18.6012 32.9769 18.3668 33.2102C18.1325 33.4438 18.0153 33.7295 18.0153 34.0611V35.6241H18.0181Z" fill="white"/>
<path d="M30.9084 34.3314H35.4707L38.8182 30.9689H41.4339L37.1687 35.2718L41.4339 39.5743H38.8182L35.4707 36.1972H30.9084V39.5743H29.0391V30.9658H30.9084V34.3314Z" fill="white"/>
<path d="M55.0916 35.8378C54.8514 35.8378 54.6427 35.8059 54.4596 35.7426C54.2766 35.679 54.0994 35.5608 53.9223 35.382L49.5312 30.9697H52.1469L55.137 33.9744H56.9121L59.9164 30.9697H62.5321L58.1271 35.382C57.9614 35.558 57.7843 35.679 57.5984 35.7426C57.4126 35.8059 57.198 35.8378 56.9609 35.8378V39.5779H55.0913V35.8378H55.0916Z" fill="white"/>
<path d="M66.7414 39.5779C66.1497 39.5779 65.5981 39.4653 65.0833 39.2404C64.5688 39.0155 64.1171 38.707 63.7284 38.3147C63.3398 37.9226 63.0337 37.4669 62.8108 36.9479C62.5879 36.4285 62.4766 35.8724 62.4766 35.2751C62.4766 34.6781 62.5879 34.1185 62.8108 33.5939C63.034 33.0689 63.3398 32.616 63.7284 32.2267C64.1171 31.8406 64.5688 31.5321 65.0833 31.3072C65.5981 31.082 66.1497 30.9697 66.7414 30.9697H73.1103C73.7021 30.9697 74.2564 31.082 74.7768 31.3072C75.2968 31.5321 75.7485 31.8378 76.1403 32.2267C76.5289 32.6135 76.8347 33.0689 77.0579 33.5939C77.2808 34.1185 77.3925 34.6781 77.3925 35.2751C77.3925 35.8724 77.2808 36.4285 77.0579 36.9479C76.8347 37.4669 76.5292 37.9226 76.1403 38.3147C75.7516 38.707 75.2968 39.0155 74.7768 39.2404C74.2564 39.4653 73.7017 39.5779 73.1103 39.5779H66.7414ZM73.1103 37.6918C73.4417 37.6918 73.7534 37.6284 74.0452 37.5046C74.3365 37.3777 74.5913 37.2046 74.8083 36.9853C75.0257 36.7663 75.1973 36.5093 75.3231 36.2155C75.4489 35.9213 75.5086 35.6069 75.5086 35.2723C75.5086 34.9376 75.4458 34.6232 75.3231 34.3293C75.1973 34.0352 75.0287 33.7782 74.8083 33.5592C74.5913 33.34 74.3365 33.1672 74.0452 33.0402C73.7537 32.9133 73.442 32.8527 73.1103 32.8527H66.7414C66.41 32.8527 66.0983 32.9164 65.8065 33.0402C65.5152 33.1672 65.2604 33.34 65.0434 33.5592C64.826 33.7782 64.6544 34.0352 64.5286 34.3293C64.4028 34.6232 64.3431 34.9376 64.3431 35.2723C64.3431 35.6066 64.4059 35.921 64.5286 36.2155C64.6544 36.5093 64.826 36.7663 65.0434 36.9853C65.2604 37.2046 65.5152 37.3777 65.8065 37.5046C66.098 37.6316 66.4097 37.6918 66.7414 37.6918H73.1103Z" fill="white"/>
<path d="M91.0012 37.6926V39.5787H83.9002C83.4745 39.5787 83.0741 39.4979 82.7025 39.3366C82.3277 39.1751 82.0046 38.9527 81.7307 38.6763C81.4562 38.3993 81.2388 38.0706 81.0759 37.6957C80.916 37.3179 80.8359 36.9168 80.8359 36.4873V30.9736H82.7056V36.4873C82.7056 36.8217 82.8227 37.1074 83.0571 37.3438C83.2918 37.5806 83.5747 37.6985 83.9061 37.6985H91.0012V37.6929V37.6926Z" fill="white"/>
<path d="M59.1327 26.6842C57.7148 26.6842 56.4314 26.4537 55.3251 25.9833C50.4456 23.91 48.9819 19.2784 47.5668 14.8C46.2231 10.5492 44.9539 6.53208 40.8121 5.07576C36.0095 3.38862 29.1976 4.6893 21.6279 8.74105C14.5415 12.5333 5.85437 19.9188 0 26.6842V24.0887C11.3541 10.9675 29.7062 -0.651586 41.3606 3.43759C46.3032 5.1737 47.7637 9.79656 49.1758 14.2666C50.5306 18.5604 51.8143 22.6181 55.9735 24.3857C63.157 27.4365 80.4715 16.435 90.9995 0V3.07983C81.3091 18.2114 67.7249 26.6838 59.1321 26.6838L59.1327 26.6842Z" fill="white"/>
<path d="M58.1715 42.2783V42.7817H56.8964V44.9517H56.3965V42.7817H55.1211V42.2783H58.1715Z" fill="white"/>
<path d="M60.8013 42.2246C61.0175 42.2274 61.2228 42.2586 61.4107 42.3179C61.599 42.3771 61.7648 42.4651 61.9051 42.5808C62.0455 42.6968 62.1577 42.841 62.2421 43.0138C62.3262 43.1862 62.3714 43.3843 62.3797 43.6136C62.3711 43.8397 62.3262 44.0409 62.2421 44.2134C62.1577 44.3859 62.0455 44.53 61.9051 44.6463C61.7648 44.762 61.5987 44.85 61.4107 44.9092C61.2228 44.9685 61.0175 44.9997 60.8013 44.9997C60.5849 44.9997 60.3799 44.9685 60.1916 44.9092C60.0033 44.85 59.8379 44.762 59.6973 44.6463C59.5569 44.5303 59.4443 44.3859 59.3602 44.2134C59.2758 44.0409 59.231 43.84 59.2227 43.6136C59.231 43.3874 59.2761 43.1862 59.3602 43.0138C59.4443 42.8413 59.5569 42.6968 59.6973 42.5808C59.8376 42.4651 60.0033 42.3771 60.1916 42.3179C60.3799 42.2586 60.5821 42.2271 60.8013 42.2246ZM60.8013 42.7283C60.6523 42.7312 60.5147 42.7536 60.3855 42.796C60.2563 42.8385 60.1468 42.9005 60.054 42.9769C59.9613 43.0534 59.8855 43.1469 59.8348 43.2542C59.7814 43.3618 59.756 43.4804 59.756 43.6108C59.756 43.7411 59.7814 43.8597 59.8348 43.9673C59.8883 44.0749 59.9613 44.1681 60.054 44.2474C60.1465 44.3266 60.259 44.3859 60.3855 44.4283C60.5147 44.4707 60.6523 44.4935 60.8013 44.4935C60.9501 44.4935 61.0904 44.471 61.2172 44.4283C61.3436 44.3859 61.4559 44.3238 61.5486 44.2474C61.6414 44.1709 61.7171 44.0777 61.7675 43.9673C61.821 43.8597 61.8464 43.7411 61.8464 43.6108C61.8464 43.4807 61.821 43.3618 61.7675 43.2542C61.714 43.1469 61.6414 43.0534 61.5486 42.9769C61.4559 42.8977 61.3436 42.8385 61.2172 42.796C61.088 42.7536 60.9504 42.7308 60.8013 42.7283Z" fill="white"/>
<path d="M66.2499 42.2783V44.9517H65.75V42.2783H66.2499Z" fill="white"/>
<path d="M67.8368 42.2783L69.9294 44.1058V42.2783H70.4321V44.9517H70.1316L68.039 43.1242V44.9517H67.5391V42.2783H67.8368Z" fill="white"/>
<path d="M74.1943 42.2782V42.7816H72.2226V43.4775H74.0258V43.9812H72.2226V44.9488H71.7227V42.2754H74.1943V42.2782Z" fill="white"/>
<path d="M75.9843 42.2783V44.9517H75.4844V42.2783H75.9843Z" fill="white"/>
<path d="M77.5787 42.2783L79.6715 44.1058V42.2783H80.1743V44.9517H79.8737L77.7812 43.1242V44.9517H77.2812V42.2783H77.5787Z" fill="white"/>
<path d="M81.9648 42.2783V44.9517H81.4648V42.2783H81.9648Z" fill="white"/>
<path d="M86.3085 42.2783V42.7817H85.0334V44.9517H84.5332V42.7817H83.2578V42.2783H86.3085Z" fill="white"/>
<path d="M88.2589 42.2783L89.3036 43.526L90.3431 42.2783H91.0004L89.5537 44.0097V44.9517H89.0479V44.0097L87.6016 42.2783H88.2589Z" fill="white"/>
</svg>
