<svg width="25" height="24" viewBox="0 0 25 24" fill="none" xmlns="http://www.w3.org/2000/svg">
<g clip-path="url(#clip0_216_2321)">
<path d="M12.8828 23.5C19.2341 23.5 24.3828 18.3513 24.3828 12C24.3828 5.64873 19.2341 0.5 12.8828 0.5C6.53154 0.5 1.38281 5.64873 1.38281 12C1.38281 18.3513 6.53154 23.5 12.8828 23.5Z" stroke="#B3B3B3" stroke-miterlimit="10"/>
<path d="M1.38281 12H24.3828" stroke="#B3B3B3" stroke-miterlimit="10"/>
<path d="M4.18359 4.3999C5.48359 5.1999 7.23359 6.4999 12.8836 6.4999C18.5336 6.4999 20.0336 5.2499 21.5336 4.3999" stroke="#B3B3B3" stroke-miterlimit="10"/>
<path d="M21.682 19.4002C20.432 18.6002 18.532 17.2002 12.882 17.2002C7.23203 17.2002 5.58203 18.5502 4.08203 19.4002" stroke="#B3B3B3" stroke-miterlimit="10"/>
<path d="M12.9828 23.5C15.6614 23.5 17.8328 18.3513 17.8328 12C17.8328 5.64873 15.6614 0.5 12.9828 0.5C10.3042 0.5 8.13281 5.64873 8.13281 12C8.13281 18.3513 10.3042 23.5 12.9828 23.5Z" stroke="#B3B3B3" stroke-miterlimit="10"/>
</g>
<defs>
<clipPath id="clip0_216_2321">
<rect width="24" height="24" fill="white" transform="translate(0.882812)"/>
</clipPath>
</defs>
</svg>
