<svg width="25" height="24" viewBox="0 0 25 24" fill="none" xmlns="http://www.w3.org/2000/svg">
<g clip-path="url(#clip0_265_2017)">
<path d="M12.1765 16.7068C12.5737 17.104 13.2117 17.1072 13.6014 16.7175C13.9911 16.3278 13.9879 15.6898 13.5907 15.2926C13.3016 15.0035 11.8279 14.0076 9.24562 12.3618C10.8915 14.944 11.8874 16.4177 12.1765 16.7068ZM11.4694 17.4139C11.0335 16.9781 9.64851 14.8917 7.21064 11.0162C6.92741 10.566 7.44985 10.0435 7.9001 10.3268C11.7756 12.7646 13.862 14.1497 14.2978 14.5855C15.084 15.3717 15.0903 16.6428 14.3085 17.4246C13.5266 18.2065 12.2555 18.2001 11.4694 17.4139ZM3.38387 17C3.66002 17 3.88387 17.2239 3.88387 17.5C3.88386 17.7761 3.66 18 3.38386 18L2.91015 18C1.80558 18 0.910156 17.1046 0.910156 16C0.910252 15.976 0.910252 15.976 0.910733 15.952C0.929209 15.1828 0.951689 14.6962 0.980802 14.4678C1.74002 8.51172 6.82608 4 12.8839 4C18.9325 4 24.0143 8.49879 24.7839 14.4444C24.8141 14.677 24.8373 15.1711 24.8564 15.9511C24.8834 17.0553 24.0102 17.9724 22.9059 17.9994C22.5809 18 22.357 17.7761 22.357 17.5C22.357 17.2239 22.5809 17 22.857 17C23.4336 16.9862 23.8702 16.5277 23.8567 15.9755C23.8385 15.2333 23.8161 14.7576 23.7922 14.5728C23.0869 9.12415 18.4283 5 12.8839 5C7.33104 5 2.66853 9.13599 1.97278 14.5942C1.94968 14.7754 1.92802 15.2441 1.91044 15.976C1.91016 16.5523 2.35787 17 2.91016 17L3.38387 17ZM3.40422 9.69199L5.03242 10.632C5.60977 10.9654 5.10977 11.8314 4.53242 11.4981L2.90422 10.558C2.32687 10.2247 2.82687 9.35865 3.40422 9.69199ZM7.69188 5.77035L8.66748 7.46014C9.00081 8.03749 8.13479 8.53749 7.80146 7.96014L6.82586 6.27035C6.49252 5.693 7.35855 5.193 7.69188 5.77035ZM22.8635 10.558L21.3131 11.4532C20.7357 11.7865 20.2357 10.9205 20.8131 10.5871L22.3635 9.69199C22.9409 9.35865 23.4409 10.2247 22.8635 10.558ZM18.9419 6.27035L17.9685 7.95632C17.6352 8.53367 16.7691 8.03367 17.1025 7.45632L18.0759 5.77035C18.4092 5.193 19.2752 5.693 18.9419 6.27035ZM13.3839 6.49796C13.3839 6.7741 13.16 6.99796 12.8839 6.99796C12.6077 6.99796 12.3839 6.7741 12.3839 6.49796V4.58617C12.3839 4.31003 12.6077 4.08617 12.8839 4.08617C13.16 4.08617 13.3839 4.31003 13.3839 4.58617V6.49796Z" fill="#B3B3B3"/>
</g>
<defs>
<clipPath id="clip0_265_2017">
<rect width="24" height="24" fill="white" transform="translate(0.882812)"/>
</clipPath>
</defs>
</svg>
